<mxfile host="app.diagrams.net" modified="2023-05-04T13:04:37.289Z" agent="Mozilla/5.0 (Windows NT 10.0; Win64; x64) AppleWebKit/537.36 (KHTML, like Gecko) Chrome/113.0.0.0 Safari/537.36" etag="QLIwqpJAv_J96TA0SCJ6" version="21.2.7" type="device">
  <diagram name="Page-1" id="QYyE2YP57dYAzB2uaimD">
    <mxGraphModel dx="1434" dy="764" grid="1" gridSize="10" guides="1" tooltips="1" connect="1" arrows="1" fold="1" page="1" pageScale="1" pageWidth="850" pageHeight="1100" math="0" shadow="0">
      <root>
        <mxCell id="0" />
        <mxCell id="1" parent="0" />
        <mxCell id="kUZrpS57GjxNQHsOo2yM-18" value="" style="edgeStyle=orthogonalEdgeStyle;rounded=0;orthogonalLoop=1;jettySize=auto;html=1;strokeColor=#FF3333;" edge="1" parent="1" source="kUZrpS57GjxNQHsOo2yM-1" target="kUZrpS57GjxNQHsOo2yM-3">
          <mxGeometry relative="1" as="geometry" />
        </mxCell>
        <mxCell id="kUZrpS57GjxNQHsOo2yM-27" style="edgeStyle=orthogonalEdgeStyle;rounded=0;orthogonalLoop=1;jettySize=auto;html=1;entryX=1;entryY=0.5;entryDx=0;entryDy=0;" edge="1" parent="1" source="kUZrpS57GjxNQHsOo2yM-1" target="kUZrpS57GjxNQHsOo2yM-6">
          <mxGeometry relative="1" as="geometry" />
        </mxCell>
        <mxCell id="kUZrpS57GjxNQHsOo2yM-1" value="IEmailService" style="verticalLabelPosition=bottom;verticalAlign=top;html=1;shape=process;whiteSpace=wrap;rounded=1;size=0.14;arcSize=6;" vertex="1" parent="1">
          <mxGeometry x="430" y="470" width="100" height="60" as="geometry" />
        </mxCell>
        <mxCell id="kUZrpS57GjxNQHsOo2yM-17" value="" style="edgeStyle=orthogonalEdgeStyle;rounded=0;orthogonalLoop=1;jettySize=auto;html=1;strokeColor=#FF3333;" edge="1" parent="1" source="kUZrpS57GjxNQHsOo2yM-2" target="kUZrpS57GjxNQHsOo2yM-1">
          <mxGeometry relative="1" as="geometry" />
        </mxCell>
        <mxCell id="kUZrpS57GjxNQHsOo2yM-2" value="SubsriptionManager" style="verticalLabelPosition=bottom;verticalAlign=top;html=1;shape=process;whiteSpace=wrap;rounded=1;size=0.14;arcSize=6;" vertex="1" parent="1">
          <mxGeometry x="430" y="330" width="100" height="60" as="geometry" />
        </mxCell>
        <mxCell id="kUZrpS57GjxNQHsOo2yM-20" value="" style="edgeStyle=orthogonalEdgeStyle;rounded=0;orthogonalLoop=1;jettySize=auto;html=1;strokeColor=#FF3333;" edge="1" parent="1" source="kUZrpS57GjxNQHsOo2yM-3" target="kUZrpS57GjxNQHsOo2yM-19">
          <mxGeometry relative="1" as="geometry" />
        </mxCell>
        <mxCell id="kUZrpS57GjxNQHsOo2yM-26" style="edgeStyle=orthogonalEdgeStyle;rounded=0;orthogonalLoop=1;jettySize=auto;html=1;entryX=1;entryY=0.5;entryDx=0;entryDy=0;" edge="1" parent="1" source="kUZrpS57GjxNQHsOo2yM-3" target="kUZrpS57GjxNQHsOo2yM-1">
          <mxGeometry relative="1" as="geometry" />
        </mxCell>
        <mxCell id="kUZrpS57GjxNQHsOo2yM-3" value="EmailService" style="verticalLabelPosition=bottom;verticalAlign=top;html=1;shape=process;whiteSpace=wrap;rounded=1;size=0.14;arcSize=6;" vertex="1" parent="1">
          <mxGeometry x="580" y="470" width="100" height="60" as="geometry" />
        </mxCell>
        <mxCell id="kUZrpS57GjxNQHsOo2yM-16" value="" style="edgeStyle=orthogonalEdgeStyle;rounded=0;orthogonalLoop=1;jettySize=auto;html=1;strokeColor=#FF3333;" edge="1" parent="1" source="kUZrpS57GjxNQHsOo2yM-5" target="kUZrpS57GjxNQHsOo2yM-2">
          <mxGeometry relative="1" as="geometry" />
        </mxCell>
        <mxCell id="kUZrpS57GjxNQHsOo2yM-5" value="Background&lt;br&gt;Service" style="rounded=1;whiteSpace=wrap;html=1;absoluteArcSize=1;arcSize=14;strokeWidth=2;" vertex="1" parent="1">
          <mxGeometry x="260" y="310" width="100" height="100" as="geometry" />
        </mxCell>
        <mxCell id="kUZrpS57GjxNQHsOo2yM-15" value="" style="edgeStyle=orthogonalEdgeStyle;rounded=0;orthogonalLoop=1;jettySize=auto;html=1;strokeColor=#FF3333;" edge="1" parent="1" source="kUZrpS57GjxNQHsOo2yM-6" target="kUZrpS57GjxNQHsOo2yM-1">
          <mxGeometry relative="1" as="geometry" />
        </mxCell>
        <mxCell id="kUZrpS57GjxNQHsOo2yM-31" style="edgeStyle=orthogonalEdgeStyle;rounded=0;orthogonalLoop=1;jettySize=auto;html=1;" edge="1" parent="1" source="kUZrpS57GjxNQHsOo2yM-6" target="kUZrpS57GjxNQHsOo2yM-29">
          <mxGeometry relative="1" as="geometry" />
        </mxCell>
        <mxCell id="kUZrpS57GjxNQHsOo2yM-6" value="Controller" style="rounded=1;whiteSpace=wrap;html=1;absoluteArcSize=1;arcSize=14;strokeWidth=2;" vertex="1" parent="1">
          <mxGeometry x="260" y="450" width="100" height="100" as="geometry" />
        </mxCell>
        <mxCell id="kUZrpS57GjxNQHsOo2yM-13" style="edgeStyle=orthogonalEdgeStyle;rounded=0;orthogonalLoop=1;jettySize=auto;html=1;entryX=0;entryY=0.5;entryDx=0;entryDy=0;entryPerimeter=0;strokeColor=#00FF00;" edge="1" parent="1" source="kUZrpS57GjxNQHsOo2yM-7" target="kUZrpS57GjxNQHsOo2yM-8">
          <mxGeometry relative="1" as="geometry" />
        </mxCell>
        <mxCell id="kUZrpS57GjxNQHsOo2yM-7" value="START" style="strokeWidth=2;html=1;shape=mxgraph.flowchart.start_2;whiteSpace=wrap;" vertex="1" parent="1">
          <mxGeometry x="60" y="375" width="100" height="100" as="geometry" />
        </mxCell>
        <mxCell id="kUZrpS57GjxNQHsOo2yM-8" value="" style="strokeWidth=2;html=1;shape=mxgraph.flowchart.annotation_2;align=left;labelPosition=right;pointerEvents=1;strokeColor=#00FF00;" vertex="1" parent="1">
          <mxGeometry x="210" y="360" width="50" height="130" as="geometry" />
        </mxCell>
        <mxCell id="kUZrpS57GjxNQHsOo2yM-25" style="edgeStyle=orthogonalEdgeStyle;rounded=0;orthogonalLoop=1;jettySize=auto;html=1;entryX=1;entryY=0.5;entryDx=0;entryDy=0;" edge="1" parent="1" source="kUZrpS57GjxNQHsOo2yM-19" target="kUZrpS57GjxNQHsOo2yM-3">
          <mxGeometry relative="1" as="geometry" />
        </mxCell>
        <mxCell id="kUZrpS57GjxNQHsOo2yM-19" value="DB" style="strokeWidth=2;html=1;shape=mxgraph.flowchart.database;whiteSpace=wrap;" vertex="1" parent="1">
          <mxGeometry x="750" y="470" width="60" height="60" as="geometry" />
        </mxCell>
        <mxCell id="kUZrpS57GjxNQHsOo2yM-30" style="edgeStyle=orthogonalEdgeStyle;rounded=0;orthogonalLoop=1;jettySize=auto;html=1;strokeColor=#FF3333;" edge="1" parent="1" source="kUZrpS57GjxNQHsOo2yM-29" target="kUZrpS57GjxNQHsOo2yM-6">
          <mxGeometry relative="1" as="geometry" />
        </mxCell>
        <mxCell id="kUZrpS57GjxNQHsOo2yM-29" value="CLIENT" style="verticalLabelPosition=middle;verticalAlign=middle;html=1;shape=trapezoid;perimeter=trapezoidPerimeter;whiteSpace=wrap;size=0.23;arcSize=10;flipV=1;labelPosition=center;align=center;" vertex="1" parent="1">
          <mxGeometry x="60" y="590" width="100" height="60" as="geometry" />
        </mxCell>
      </root>
    </mxGraphModel>
  </diagram>
</mxfile>
